<svg xmlns="http://www.w3.org/2000/svg" viewBox="0 0 24 24" role="img" aria-label="llama.cpp">
  <path d="M14.9 2.2c.5 0 .9.4.9.9v1.2c1.9.6 3.2 2.4 3.2 4.5v5.1c1 .3 1.8 1.3 1.8 2.4v2.1c0 .5-.4.9-.9.9h-1.5c-.5 0-.9-.4-.9-.9v-1.8c0-.3-.2-.5-.5-.5h-.4v3.2c0 .5-.4.9-.9.9h-1.4c-.5 0-.9-.4-.9-.9v-2.6h-3.1v2.6c0 .5-.4.9-.9.9H8c-.5 0-.9-.4-.9-.9v-3.6c-1.6-.5-2.8-2-2.8-3.8V8.6c0-.4.3-.7.7-.7s.7.3.7.7v3.3c0 1 .6 1.9 1.4 2.3V8.8c0-2.1 1.4-3.9 3.2-4.5V3.1c0-.5.4-.9.9-.9s.9.4.9.9v.9h1.9v-.9c0-.5.4-.9.9-.9Z"/>
</svg>
