<svg xmlns="http://www.w3.org/2000/svg" viewBox="0 0 50 50" role="img" fill="currentColor" aria-hidden="true">
  <title>Microsoft PowerPoint</title>
  <path d="M 26.019531 3.0507812 C 24.739531 3.0507812 23.489297 3.1591406 22.279297 3.3691406 C 22.659297 3.5291406 23.020859 3.7309375 23.380859 3.9609375 C 25.660859 5.4409375 27.029297 7.9403906 27.029297 10.650391 L 27.029297 21.240234 C 27.029297 21.980234 27.310078 22.669453 27.830078 23.189453 C 28.360078 23.709453 29.049297 24 29.779297 24 L 29.789062 24 L 40.429688 23.990234 L 40.439453 23.990234 C 43.149453 23.990234 45.649141 25.350859 47.119141 27.630859 C 47.339141 27.970859 47.529453 28.319688 47.689453 28.679688 C 47.899453 27.489688 48 26.269531 48 25.019531 C 48 12.909531 38.139531 3.0507812 26.019531 3.0507812 z M 18.773438 4.6933594 C 18.037852 4.7302734 17.303125 4.9057031 16.609375 5.2207031 L 15.939453 5.5195312 L 15.929688 5.5097656 C 9.5896875 8.7997656 5.0392187 15.099766 4.1992188 22.509766 C 4.8992187 22.179766 5.68 22 6.5 22 L 17.5 22 C 20.53 22 23 24.47 23 27.5 L 23 38.5 C 23 41.53 20.53 44 17.5 44 L 14.960938 44 C 18.210938 45.91 21.989531 47 26.019531 47 C 34.599531 47 42.049922 42.049375 45.669922 34.859375 L 45.880859 34.400391 C 46.710859 32.550391 46.549453 30.420703 45.439453 28.720703 C 44.339453 27.010703 42.469453 25.990234 40.439453 25.990234 L 40.429688 25.990234 L 29.789062 26 L 29.779297 26 C 28.509297 26 27.319922 25.509375 26.419922 24.609375 C 25.519922 23.709375 25.029297 22.510234 25.029297 21.240234 L 25.029297 10.650391 C 25.029297 8.6203906 24.010781 6.750625 22.300781 5.640625 C 21.232031 4.953125 19.999414 4.6318359 18.773438 4.6933594 z M 6.5 24 C 4.567 24 3 25.567 3 27.5 L 3 38.5 C 3 40.433 4.567 42 6.5 42 L 17.5 42 C 19.433 42 21 40.433 21 38.5 L 21 27.5 C 21 25.567 19.433 24 17.5 24 L 6.5 24 z M 8.5097656 28 L 11.986328 28 C 13.231328 28 14.180078 28.272406 14.830078 28.816406 C 15.485078 29.360406 15.8125 30.167328 15.8125 31.236328 C 15.8125 32.338328 15.446891 33.198406 14.712891 33.816406 C 13.983891 34.434406 13.002484 34.742188 11.771484 34.742188 L 10.759766 34.742188 L 10.759766 38 L 8.5097656 38 L 8.5097656 28 z M 10.759766 29.728516 L 10.759766 33.013672 L 11.701172 33.013672 C 12.258172 33.013672 12.688234 32.867219 12.990234 32.574219 C 13.292234 32.281219 13.443359 31.8615 13.443359 31.3125 C 13.443359 30.8055 13.295047 30.415625 12.998047 30.140625 C 12.705047 29.866625 12.284328 29.728516 11.736328 29.728516 L 10.759766 29.728516 z"/>
</svg>
